<svg xmlns="http://www.w3.org/2000/svg"  viewBox="0 0 120 120" width="100px" height="100px" baseProfile="basic"><path d="M71,77c10.146,0,20.487,28.578,22,33C90.261,53.898,60,9.955,60,9.955v0.068 c0,0-32.99,48.112-32.99,108.045C27.01,118.068,54,77,71,77z" opacity=".35"/><path fill="#ffc400" d="M71,73c10.146,0,20.487,28.578,22,33C90.261,49.898,60,5.955,60,5.955v0.068 c0,0-32.99,48.112-32.99,108.045C27.01,114.068,54,73,71,73z"/><polygon points="66.005,58 75.005,55 65.005,53 60,25 55,53 45,55 54,58 52,66 60.003,59.393 68.005,66" opacity=".35"/><polygon fill="#0075ff" points="66.005,55 75.005,52 65.005,50 60,22 55,50 45,52 54,55 52,63 60.003,56.393 68.005,63"/></svg>